<svg width="209" height="76" viewBox="0 0 209 76" fill="none" xmlns="http://www.w3.org/2000/svg">
<rect x="0.805664" width="207.699" height="75.5885" rx="10" fill="#090909"/>
<path d="M48.4131 38.9403C48.4541 35.7467 50.1625 32.7249 52.8727 31.0521C51.163 28.6008 48.2992 27.0465 45.3197 26.9529C42.1419 26.6181 39.0611 28.8619 37.4417 28.8619C35.791 28.8619 33.2977 26.9862 30.6129 27.0416C27.1133 27.1551 23.8508 29.1526 22.1482 32.2241C18.4882 38.5855 21.2182 47.9346 24.7241 53.0767C26.4782 55.5946 28.5283 58.4072 31.2107 58.3075C33.8356 58.1982 34.816 56.6271 37.9845 56.6271C41.1236 56.6271 42.0434 58.3075 44.7802 58.244C47.5969 58.1981 49.3715 55.7149 51.0641 53.1732C52.3244 51.379 53.2942 49.3962 53.9376 47.2979C50.6275 45.8925 48.417 42.5483 48.4131 38.9403Z" fill="white"/>
<path d="M43.2436 23.5712C44.7794 21.7204 45.536 19.3415 45.3528 16.9397C43.0065 17.1871 40.8391 18.3128 39.2826 20.0927C37.7606 21.8316 36.9685 24.1687 37.1182 26.4787C39.4654 26.503 41.7728 25.4077 43.2436 23.5712Z" fill="white"/>
<path d="M142.037 35.6418V39.5117H139.62V42.0496H142.037V50.6729C142.037 53.6174 143.363 54.7952 146.702 54.7952C147.288 54.7952 147.847 54.7251 148.336 54.641V52.1311C147.917 52.1732 147.651 52.2012 147.19 52.2012C145.696 52.2012 145.04 51.5001 145.04 49.9017V42.0496H148.336V39.5117H145.04V35.6418H142.037Z" fill="white"/>
<path d="M156.839 55.0055C161.281 55.0055 164.004 52.0189 164.004 47.0693C164.004 42.1478 161.267 39.1472 156.839 39.1472C152.398 39.1472 149.66 42.1478 149.66 47.0693C149.66 52.0189 152.384 55.0055 156.839 55.0055ZM156.839 52.3274C154.228 52.3274 152.761 50.4065 152.761 47.0693C152.761 43.7603 154.228 41.8253 156.839 41.8253C159.437 41.8253 160.918 43.7603 160.918 47.0693C160.918 50.3924 159.437 52.3274 156.839 52.3274Z" fill="white"/>
<path d="M166.335 54.7111H169.338V45.6952C169.338 43.5499 170.944 42.1057 173.22 42.1057C173.751 42.1057 174.645 42.2039 174.897 42.288V39.3154C174.575 39.2313 174.003 39.1892 173.556 39.1892C171.572 39.1892 169.882 40.2829 169.449 41.7832H169.226V39.4416H166.335V54.7111Z" fill="white"/>
<path d="M182.353 41.7131C184.573 41.7131 186.026 43.2695 186.096 45.6672H178.414C178.582 43.2835 180.132 41.7131 182.353 41.7131ZM186.082 50.5887C185.523 51.7806 184.28 52.4396 182.464 52.4396C180.062 52.4396 178.512 50.743 178.414 48.0649V47.8966H189.155V46.845C189.155 42.0496 186.599 39.1472 182.367 39.1472C178.079 39.1472 175.355 42.2459 175.355 47.1254C175.355 52.0049 178.023 55.0055 182.381 55.0055C185.858 55.0055 188.289 53.3229 188.973 50.5887H186.082Z" fill="white"/>
<path d="M122.344 49.0723C122.576 52.8218 125.688 55.2197 130.321 55.2197C135.271 55.2197 138.369 52.7055 138.369 48.6944C138.369 45.5408 136.603 43.7969 132.318 42.7941L130.017 42.2273C127.295 41.5879 126.195 40.7304 126.195 39.2335C126.195 37.3443 127.903 36.109 130.465 36.109C132.897 36.109 134.577 37.3152 134.881 39.2481H138.036C137.848 35.7166 134.75 33.2314 130.509 33.2314C125.949 33.2314 122.909 35.7166 122.909 39.4515C122.909 42.5325 124.631 44.3636 128.41 45.2501L131.102 45.9041C133.867 46.5581 135.083 47.5173 135.083 49.1159C135.083 50.9761 133.172 52.3277 130.567 52.3277C127.773 52.3277 125.833 51.0633 125.558 49.0723H122.344Z" fill="white"/>
<path d="M91.237 39.1892C89.1699 39.1892 87.3821 40.2268 86.4603 41.9655H86.2368V39.4416H83.3456V59.7868H86.3485V52.3975H86.586C87.3821 54.01 89.1 54.9634 91.2649 54.9634C95.1059 54.9634 97.5501 51.9208 97.5501 47.0693C97.5501 42.2179 95.1059 39.1892 91.237 39.1892ZM90.385 52.2573C87.8709 52.2573 86.2927 50.2662 86.2927 47.0834C86.2927 43.8864 87.8709 41.8954 90.399 41.8954C92.941 41.8954 94.4634 43.8444 94.4634 47.0693C94.4634 50.3083 92.941 52.2573 90.385 52.2573Z" fill="white"/>
<path d="M108.058 39.1892C105.991 39.1892 104.203 40.2268 103.281 41.9655H103.058V39.4416H100.166V59.7868H103.169V52.3975H103.407C104.203 54.01 105.921 54.9634 108.086 54.9634C111.927 54.9634 114.371 51.9208 114.371 47.0693C114.371 42.2179 111.927 39.1892 108.058 39.1892ZM107.206 52.2573C104.692 52.2573 103.113 50.2662 103.113 47.0834C103.113 43.8864 104.692 41.8954 107.22 41.8954C109.762 41.8954 111.284 43.8444 111.284 47.0693C111.284 50.3083 109.762 52.2573 107.206 52.2573Z" fill="white"/>
<path d="M77.9579 54.7111H81.4033L73.8611 33.7401H70.3723L62.8301 54.7111H66.1596L68.085 49.145H76.047L77.9579 54.7111ZM71.9502 37.5477H72.1963L75.2219 46.4128H68.9102L71.9502 37.5477Z" fill="white"/>
<path d="M62.7471 18.9484V27.2377H65.7283C68.1888 27.2377 69.6136 25.7154 69.6136 23.0672C69.6136 20.4592 68.1774 18.9484 65.7283 18.9484H62.7471ZM64.0288 20.1203H65.5853C67.2962 20.1203 68.309 21.2117 68.309 23.0844C68.309 24.9858 67.3133 26.0658 65.5853 26.0658H64.0288V20.1203Z" fill="white"/>
<path d="M73.9774 27.3583C75.797 27.3583 76.9128 26.1347 76.9128 24.1069C76.9128 22.0906 75.7913 20.8613 73.9774 20.8613C72.1577 20.8613 71.0362 22.0906 71.0362 24.1069C71.0362 26.1347 72.152 27.3583 73.9774 27.3583ZM73.9774 26.2611C72.9073 26.2611 72.3065 25.4741 72.3065 24.1069C72.3065 22.7512 72.9073 21.9585 73.9774 21.9585C75.0417 21.9585 75.6482 22.7512 75.6482 24.1069C75.6482 25.4684 75.0417 26.2611 73.9774 26.2611Z" fill="white"/>
<path d="M86.415 20.9819H85.1847L84.0746 25.7556H83.9774L82.6956 20.9819H81.5168L80.2351 25.7556H80.1435L79.0277 20.9819H77.7803L79.4969 27.2377H80.7615L82.0433 22.6306H82.1406L83.428 27.2377H84.7041L86.415 20.9819Z" fill="white"/>
<path d="M87.8318 27.2377H89.0621V23.5784C89.0621 22.6019 89.64 21.993 90.5498 21.993C91.4596 21.993 91.8945 22.4927 91.8945 23.498V27.2377H93.1248V23.1878C93.1248 21.7 92.358 20.8613 90.9675 20.8613C90.0291 20.8613 89.4111 21.2806 89.1078 21.9757H89.0163V20.9819H87.8318V27.2377Z" fill="white"/>
<path d="M95.0623 27.2377H96.2926V18.5405H95.0623V27.2377Z" fill="white"/>
<path d="M100.919 27.3583C102.739 27.3583 103.855 26.1347 103.855 24.1069C103.855 22.0906 102.733 20.8613 100.919 20.8613C99.0999 20.8613 97.9783 22.0906 97.9783 24.1069C97.9783 26.1347 99.0941 27.3583 100.919 27.3583ZM100.919 26.2611C99.8495 26.2611 99.2486 25.4741 99.2486 24.1069C99.2486 22.7512 99.8495 21.9585 100.919 21.9585C101.984 21.9585 102.59 22.7512 102.59 24.1069C102.59 25.4684 101.984 26.2611 100.919 26.2611Z" fill="white"/>
<path d="M107.521 26.3013C106.851 26.3013 106.365 25.9739 106.365 25.4109C106.365 24.8595 106.754 24.5665 107.612 24.509L109.134 24.4114V24.9341C109.134 25.7096 108.448 26.3013 107.521 26.3013ZM107.206 27.3411C108.024 27.3411 108.705 26.9849 109.077 26.3588H109.174V27.2377H110.359V22.9638C110.359 21.6425 109.478 20.8613 107.915 20.8613C106.502 20.8613 105.495 21.5506 105.369 22.6249H106.559C106.697 22.1825 107.172 21.9298 107.858 21.9298C108.699 21.9298 109.134 22.3032 109.134 22.9638V23.5038L107.446 23.6014C105.964 23.6933 105.129 24.3425 105.129 25.4684C105.129 26.6115 106.004 27.3411 107.206 27.3411Z" fill="white"/>
<path d="M114.534 27.3411C115.392 27.3411 116.119 26.9332 116.491 26.2496H116.588V27.2377H117.767V18.5405H116.536V21.9757H116.445C116.107 21.2864 115.386 20.8785 114.534 20.8785C112.96 20.8785 111.947 22.1308 111.947 24.1069C111.947 26.0888 112.949 27.3411 114.534 27.3411ZM114.883 21.9872C115.913 21.9872 116.559 22.8087 116.559 24.1127C116.559 25.4224 115.918 26.2324 114.883 26.2324C113.841 26.2324 113.218 25.4339 113.218 24.1069C113.218 22.7914 113.847 21.9872 114.883 21.9872Z" fill="white"/>
<path d="M125.744 27.3583C127.564 27.3583 128.68 26.1347 128.68 24.1069C128.68 22.0906 127.558 20.8613 125.744 20.8613C123.925 20.8613 122.803 22.0906 122.803 24.1069C122.803 26.1347 123.919 27.3583 125.744 27.3583ZM125.744 26.2611C124.674 26.2611 124.074 25.4741 124.074 24.1069C124.074 22.7512 124.674 21.9585 125.744 21.9585C126.809 21.9585 127.415 22.7512 127.415 24.1069C127.415 25.4684 126.809 26.2611 125.744 26.2611Z" fill="white"/>
<path d="M130.308 27.2377H131.539V23.5784C131.539 22.6019 132.117 21.993 133.026 21.993C133.936 21.993 134.371 22.4927 134.371 23.498V27.2377H135.601V23.1878C135.601 21.7 134.835 20.8613 133.444 20.8613C132.506 20.8613 131.888 21.2806 131.584 21.9757H131.493V20.9819H130.308V27.2377Z" fill="white"/>
<path d="M141.267 19.4252V21.0107H140.278V22.0504H141.267V25.5833C141.267 26.7896 141.811 27.2721 143.179 27.2721C143.419 27.2721 143.648 27.2434 143.848 27.2089V26.1807C143.677 26.1979 143.568 26.2094 143.379 26.2094C142.767 26.2094 142.498 25.9222 142.498 25.2673V22.0504H143.848V21.0107H142.498V19.4252H141.267Z" fill="white"/>
<path d="M145.5 27.2377H146.73V23.5842C146.73 22.6363 147.291 21.9987 148.298 21.9987C149.167 21.9987 149.631 22.5042 149.631 23.5038V27.2377H150.861V23.1993C150.861 21.7115 150.043 20.867 148.715 20.867C147.777 20.867 147.119 21.2864 146.816 21.9872H146.718V18.5405H145.5V27.2377Z" fill="white"/>
<path d="M155.299 21.9125C156.209 21.9125 156.804 22.5502 156.833 23.5325H153.686C153.754 22.5559 154.389 21.9125 155.299 21.9125ZM156.827 25.5488C156.598 26.0371 156.089 26.3071 155.345 26.3071C154.361 26.3071 153.726 25.612 153.686 24.5148V24.4459H158.086V24.015C158.086 22.0504 157.039 20.8613 155.305 20.8613C153.548 20.8613 152.433 22.1308 152.433 24.1299C152.433 26.129 153.525 27.3583 155.311 27.3583C156.736 27.3583 157.731 26.669 158.012 25.5488H156.827Z" fill="white"/>
</svg>
