<svg width="203" height="76" viewBox="0 0 203 76" fill="none" xmlns="http://www.w3.org/2000/svg">
<rect width="202.805" height="75.5885" rx="10" fill="#090909"/>
<g filter="url(#filter0_ii_473_346)">
<path d="M20.2412 19.1409C19.803 19.6065 19.5439 20.3291 19.5439 21.2649V54.6992C19.5439 55.6365 19.803 56.3576 20.2412 56.8233L20.3526 56.9321L39.0091 38.2028V37.9821V37.7613L20.3526 19.0305L20.2412 19.1409Z" fill="url(#paint0_linear_473_346)"/>
<path d="M45.2266 44.4475L39.0088 38.2024V37.9817V37.7609L45.2281 31.5173L45.3682 31.5975L52.7365 35.8002C54.8402 37.0005 54.8402 38.9643 52.7365 40.1662L45.3682 44.3689L45.2266 44.4475Z" fill="url(#paint1_linear_473_346)"/>
<g filter="url(#filter1_i_473_346)">
<path d="M45.3685 44.3674L39.0076 37.9817L20.2412 56.8229C20.9339 57.5606 22.0799 57.6513 23.3705 56.9166L45.3685 44.3674Z" fill="url(#paint2_linear_473_346)"/>
</g>
<path d="M45.3685 31.5963L23.3705 19.0486C22.0799 18.3124 20.9339 18.4046 20.2412 19.1423L39.0091 37.9835L45.3685 31.5963Z" fill="url(#paint3_linear_473_346)"/>
</g>
<path d="M101.633 39.8112C98.2874 39.8112 95.5609 42.3544 95.5609 45.8571C95.5609 49.3384 98.2874 51.9029 101.633 51.9029C104.979 51.9029 107.706 49.3384 107.706 45.8571C107.704 42.3544 104.978 39.8112 101.633 39.8112ZM101.633 49.5232C99.7992 49.5232 98.2191 48.0121 98.2191 45.8585C98.2191 43.6821 99.8006 42.1937 101.633 42.1937C103.466 42.1937 105.046 43.6821 105.046 45.8585C105.046 48.0107 103.466 49.5232 101.633 49.5232ZM88.3855 39.8112C85.0404 39.8112 82.3139 42.3544 82.3139 45.8571C82.3139 49.3384 85.0404 51.9029 88.3855 51.9029C91.7321 51.9029 94.4586 49.3384 94.4586 45.8571C94.4586 42.3544 91.7321 39.8112 88.3855 39.8112ZM88.3855 49.5232C86.5522 49.5232 84.9721 48.0121 84.9721 45.8585C84.9721 43.6821 86.5537 42.1937 88.3855 42.1937C90.2188 42.1937 91.799 43.6821 91.799 45.8585C91.8004 48.0107 90.2188 49.5232 88.3855 49.5232ZM72.6297 41.6678V44.2322H78.771C78.5876 45.6751 78.1068 46.7285 77.3729 47.4606C76.4798 48.3533 75.0817 49.3384 72.6297 49.3384C68.8493 49.3384 65.8938 46.292 65.8938 42.5136C65.8938 38.7351 68.8493 35.6887 72.6297 35.6887C74.6692 35.6887 76.1583 36.4905 77.2577 37.5211L79.0683 35.7115C77.5322 34.2459 75.4941 33.1243 72.6297 33.1243C67.4512 33.1243 63.0977 37.3377 63.0977 42.5136C63.0977 47.6894 67.4512 51.9029 72.6297 51.9029C75.4244 51.9029 77.5337 50.986 79.1821 49.2688C80.8774 47.5743 81.4051 45.1918 81.4051 43.2684C81.4051 42.6742 81.3595 42.1241 81.2671 41.6663L72.6297 41.6678ZM137.07 43.6593C136.566 42.3089 135.03 39.8112 131.891 39.8112C128.775 39.8112 126.185 42.262 126.185 45.8571C126.185 49.246 128.752 51.9029 132.188 51.9029C134.96 51.9029 136.565 50.2084 137.23 49.2233L135.168 47.8486C134.481 48.8565 133.541 49.5204 132.188 49.5204C130.837 49.5204 129.874 48.902 129.256 47.688L137.344 44.3445L137.07 43.6593ZM128.821 45.6751C128.752 43.3381 130.631 42.1482 131.984 42.1482C133.038 42.1482 133.931 42.6756 134.229 43.4305L128.821 45.6751ZM122.245 51.5376H124.902V33.7668H122.245V51.5376ZM117.89 41.1631H117.799C117.203 40.4523 116.057 39.8112 114.615 39.8112C111.59 39.8112 108.818 42.4681 108.818 45.8812C108.818 49.2702 111.59 51.9043 114.615 51.9043C116.059 51.9043 117.203 51.2632 117.799 50.5311H117.89V51.4011C117.89 53.7139 116.653 54.9507 114.66 54.9507C113.033 54.9507 112.025 53.7836 111.613 52.7985L109.299 53.7608C109.963 55.3629 111.726 57.3332 114.66 57.3332C117.777 57.3332 120.412 55.5008 120.412 51.0343V40.1794H117.892L117.89 41.1631ZM114.844 49.5232C113.011 49.5232 111.476 47.988 111.476 45.8812C111.476 43.7503 113.011 42.1937 114.844 42.1937C116.653 42.1937 118.074 43.7503 118.074 45.8812C118.074 47.988 116.653 49.5232 114.844 49.5232ZM149.52 33.7668H143.161V51.5376H145.814V44.8051H149.519C152.46 44.8051 155.353 42.6771 155.353 39.2867C155.353 35.8963 152.461 33.7668 149.52 33.7668ZM149.588 42.3316H145.814V36.2403H149.588C151.573 36.2403 152.699 37.8822 152.699 39.2867C152.699 40.6627 151.573 42.3316 149.588 42.3316ZM165.99 39.7799C164.069 39.7799 162.079 40.6258 161.255 42.5008L163.611 43.4831C164.114 42.5008 165.053 42.1795 166.036 42.1795C167.408 42.1795 168.803 43.0026 168.826 44.4654V44.6487C168.345 44.3744 167.316 43.9636 166.058 43.9636C163.52 43.9636 160.934 45.3581 160.934 47.9638C160.934 50.342 163.016 51.873 165.349 51.873C167.132 51.873 168.116 51.0727 168.734 50.1345H168.825V51.5063H171.388V44.6928C171.389 41.5398 169.031 39.7799 165.99 39.7799ZM165.669 49.519C164.801 49.519 163.588 49.084 163.588 48.0093C163.588 46.6375 165.098 46.1115 166.403 46.1115C167.567 46.1115 168.118 46.3631 168.826 46.7057C168.62 48.3533 167.202 49.519 165.669 49.519ZM180.72 40.168L177.678 47.8728H177.587L174.43 40.168H171.571L176.306 50.9362L173.606 56.9266H176.374L183.672 40.168H180.72ZM156.818 51.5376H159.47V33.7668H156.818V51.5376Z" fill="white"/>
<path d="M72.2984 23.2554C72.2984 24.4251 71.946 25.3561 71.2398 26.0512C70.4384 26.8775 69.3925 27.2907 68.1079 27.2907C66.8774 27.2907 65.8301 26.8719 64.9704 26.0345C64.1093 25.1956 63.6787 24.1571 63.6787 22.9177C63.6787 21.6768 64.1093 20.6383 64.9704 19.8009C65.8301 18.962 66.8774 18.5433 68.1079 18.5433C68.719 18.5433 69.303 18.6605 69.8572 18.8936C70.4128 19.1281 70.8576 19.4394 71.1901 19.8288L70.4412 20.5658C69.8771 19.9028 69.0998 19.572 68.1065 19.572C67.2085 19.572 66.4326 19.8818 65.7775 20.5015C65.1224 21.1213 64.7956 21.9267 64.7956 22.9163C64.7956 23.9059 65.1224 24.7113 65.7775 25.331C66.4326 25.9507 67.2085 26.2606 68.1065 26.2606C69.0586 26.2606 69.8529 25.9493 70.4881 25.3254C70.9002 24.9192 71.1389 24.3539 71.2029 23.6295H68.1065V22.6232H72.2373C72.28 22.8423 72.2984 23.0531 72.2984 23.2554Z" fill="white"/>
<path d="M78.8494 19.7577H74.9672V22.4125H78.4685V23.4188H74.9672V26.0736H78.8494V27.1037H73.8716V18.729H78.8494V19.7577Z" fill="white"/>
<path d="M83.4688 27.1037H82.3733V19.7577H79.9917V18.729H85.8504V19.7577H83.4688V27.1037Z" fill="white"/>
<path d="M90.0892 27.1037V18.729H91.1848V27.1037H90.0892Z" fill="white"/>
<path d="M96.0434 27.1037H94.9478V19.7577H92.5662V18.729H98.425V19.7577H96.0434V27.1037Z" fill="white"/>
<path d="M109.515 26.022C108.677 26.8678 107.636 27.2907 106.389 27.2907C105.143 27.2907 104.101 26.8678 103.265 26.022C102.426 25.1761 102.008 24.1404 102.008 22.9163C102.008 21.6922 102.426 20.6565 103.265 19.8107C104.101 18.9648 105.143 18.5405 106.389 18.5405C107.628 18.5405 108.669 18.9662 109.51 19.8163C110.351 20.6663 110.772 21.6992 110.772 22.9163C110.772 24.1404 110.352 25.1761 109.515 26.022ZM104.073 25.3199C104.704 25.948 105.476 26.2606 106.389 26.2606C107.303 26.2606 108.076 25.9466 108.706 25.3199C109.336 24.6918 109.653 23.8906 109.653 22.9163C109.653 21.9421 109.336 21.1409 108.706 20.5128C108.076 19.8847 107.303 19.572 106.389 19.572C105.476 19.572 104.704 19.8861 104.073 20.5128C103.444 21.1409 103.127 21.9421 103.127 22.9163C103.127 23.8906 103.444 24.6918 104.073 25.3199Z" fill="white"/>
<path d="M112.309 27.1037V18.729H113.642L117.786 25.2431H117.833L117.786 23.6296V18.729H118.881V27.1037H117.737L113.402 20.2727H113.355L113.402 21.8863V27.1037H112.309Z" fill="white"/>
<path d="M72.2984 23.2554C72.2984 24.4251 71.946 25.3561 71.2398 26.0512C70.4384 26.8775 69.3925 27.2907 68.1079 27.2907C66.8774 27.2907 65.8301 26.8719 64.9704 26.0345C64.1093 25.1956 63.6787 24.1571 63.6787 22.9177C63.6787 21.6768 64.1093 20.6383 64.9704 19.8009C65.8301 18.962 66.8774 18.5433 68.1079 18.5433C68.719 18.5433 69.303 18.6605 69.8572 18.8936C70.4128 19.1281 70.8576 19.4394 71.1901 19.8288L70.4412 20.5658C69.8771 19.9028 69.0998 19.572 68.1065 19.572C67.2085 19.572 66.4326 19.8818 65.7775 20.5015C65.1224 21.1213 64.7956 21.9267 64.7956 22.9163C64.7956 23.9059 65.1224 24.7113 65.7775 25.331C66.4326 25.9507 67.2085 26.2606 68.1065 26.2606C69.0586 26.2606 69.8529 25.9493 70.4881 25.3254C70.9002 24.9192 71.1389 24.3539 71.2029 23.6295H68.1065V22.6232H72.2373C72.28 22.8423 72.2984 23.0531 72.2984 23.2554Z" stroke="white" stroke-width="0.204511" stroke-miterlimit="10"/>
<path d="M78.8494 19.7577H74.9672V22.4125H78.4685V23.4188H74.9672V26.0736H78.8494V27.1037H73.8716V18.729H78.8494V19.7577Z" stroke="white" stroke-width="0.204511" stroke-miterlimit="10"/>
<path d="M83.4688 27.1037H82.3733V19.7577H79.9917V18.729H85.8504V19.7577H83.4688V27.1037Z" stroke="white" stroke-width="0.204511" stroke-miterlimit="10"/>
<path d="M90.0892 27.1037V18.729H91.1848V27.1037H90.0892Z" stroke="white" stroke-width="0.204511" stroke-miterlimit="10"/>
<path d="M96.0434 27.1037H94.9478V19.7577H92.5662V18.729H98.425V19.7577H96.0434V27.1037Z" stroke="white" stroke-width="0.204511" stroke-miterlimit="10"/>
<path d="M109.515 26.022C108.677 26.8678 107.636 27.2907 106.389 27.2907C105.143 27.2907 104.101 26.8678 103.265 26.022C102.426 25.1761 102.008 24.1404 102.008 22.9163C102.008 21.6922 102.426 20.6565 103.265 19.8107C104.101 18.9648 105.143 18.5405 106.389 18.5405C107.628 18.5405 108.669 18.9662 109.51 19.8163C110.351 20.6663 110.772 21.6992 110.772 22.9163C110.772 24.1404 110.352 25.1761 109.515 26.022ZM104.073 25.3199C104.704 25.948 105.476 26.2606 106.389 26.2606C107.303 26.2606 108.076 25.9466 108.706 25.3199C109.336 24.6918 109.653 23.8906 109.653 22.9163C109.653 21.9421 109.336 21.1409 108.706 20.5128C108.076 19.8847 107.303 19.572 106.389 19.572C105.476 19.572 104.704 19.8861 104.073 20.5128C103.444 21.1409 103.127 21.9421 103.127 22.9163C103.127 23.8906 103.444 24.6918 104.073 25.3199Z" stroke="white" stroke-width="0.204511" stroke-miterlimit="10"/>
<path d="M112.309 27.1037V18.729H113.642L117.786 25.2431H117.833L117.786 23.6296V18.729H118.881V27.1037H117.737L113.402 20.2727H113.355L113.402 21.8863V27.1037H112.309Z" stroke="white" stroke-width="0.204511" stroke-miterlimit="10"/>
<defs>
<filter id="filter0_ii_473_346" x="19.5439" y="18.5405" width="34.7705" height="38.8835" filterUnits="userSpaceOnUse" color-interpolation-filters="sRGB">
<feFlood flood-opacity="0" result="BackgroundImageFix"/>
<feBlend mode="normal" in="SourceGraphic" in2="BackgroundImageFix" result="shape"/>
<feColorMatrix in="SourceAlpha" type="matrix" values="0 0 0 0 0 0 0 0 0 0 0 0 0 0 0 0 0 0 127 0" result="hardAlpha"/>
<feOffset dy="-0.795"/>
<feComposite in2="hardAlpha" operator="arithmetic" k2="-1" k3="1"/>
<feColorMatrix type="matrix" values="0 0 0 0 0 0 0 0 0 0 0 0 0 0 0 0 0 0 0.12 0"/>
<feBlend mode="normal" in2="shape" result="effect1_innerShadow_473_346"/>
<feColorMatrix in="SourceAlpha" type="matrix" values="0 0 0 0 0 0 0 0 0 0 0 0 0 0 0 0 0 0 127 0" result="hardAlpha"/>
<feOffset dy="0.795"/>
<feComposite in2="hardAlpha" operator="arithmetic" k2="-1" k3="1"/>
<feColorMatrix type="matrix" values="0 0 0 0 1 0 0 0 0 1 0 0 0 0 1 0 0 0 0.25 0"/>
<feBlend mode="normal" in2="effect1_innerShadow_473_346" result="effect2_innerShadow_473_346"/>
</filter>
<filter id="filter1_i_473_346" x="20.2412" y="37.9817" width="25.127" height="19.4424" filterUnits="userSpaceOnUse" color-interpolation-filters="sRGB">
<feFlood flood-opacity="0" result="BackgroundImageFix"/>
<feBlend mode="normal" in="SourceGraphic" in2="BackgroundImageFix" result="shape"/>
<feColorMatrix in="SourceAlpha" type="matrix" values="0 0 0 0 0 0 0 0 0 0 0 0 0 0 0 0 0 0 127 0" result="hardAlpha"/>
<feOffset dy="-0.795"/>
<feComposite in2="hardAlpha" operator="arithmetic" k2="-1" k3="1"/>
<feColorMatrix type="matrix" values="0 0 0 0 0 0 0 0 0 0 0 0 0 0 0 0 0 0 0.08 0"/>
<feBlend mode="normal" in2="shape" result="effect1_innerShadow_473_346"/>
</filter>
<linearGradient id="paint0_linear_473_346" x1="37.3553" y1="20.9112" x2="11.985" y2="46.1829" gradientUnits="userSpaceOnUse">
<stop stop-color="#00A0FF"/>
<stop offset="0.0066" stop-color="#00A1FF"/>
<stop offset="0.2601" stop-color="#00BEFF"/>
<stop offset="0.5122" stop-color="#00D2FF"/>
<stop offset="0.7604" stop-color="#00DFFF"/>
<stop offset="1" stop-color="#00E3FF"/>
</linearGradient>
<linearGradient id="paint1_linear_473_346" x1="55.475" y1="37.9817" x2="19.0386" y2="37.9817" gradientUnits="userSpaceOnUse">
<stop stop-color="#FFE000"/>
<stop offset="0.4087" stop-color="#FFBD00"/>
<stop offset="0.7754" stop-color="#FFA500"/>
<stop offset="1" stop-color="#FF9C00"/>
</linearGradient>
<linearGradient id="paint2_linear_473_346" x1="41.9142" y1="41.4495" x2="7.50881" y2="75.7211" gradientUnits="userSpaceOnUse">
<stop stop-color="#FF3A44"/>
<stop offset="1" stop-color="#C31162"/>
</linearGradient>
<linearGradient id="paint3_linear_473_346" x1="15.5148" y1="8.01237" x2="30.8778" y2="23.3156" gradientUnits="userSpaceOnUse">
<stop stop-color="#32A071"/>
<stop offset="0.0685" stop-color="#2DA771"/>
<stop offset="0.4762" stop-color="#15CF74"/>
<stop offset="0.8009" stop-color="#06E775"/>
<stop offset="1" stop-color="#00F076"/>
</linearGradient>
</defs>
</svg>
