<svg width="100" height="50" viewBox="0 0 100 50" fill="none" xmlns="http://www.w3.org/2000/svg">
<path d="M34.441 25.4531C33.859 26.9499 33.2154 28.2402 32.51 29.3241C31.8047 30.4079 31.0641 31.3198 30.2882 32.0595C29.5123 32.7821 28.7011 33.3412 27.8547 33.737C27.0259 34.1154 26.1883 34.3392 25.3419 34.4079C24.6365 34.4767 23.9752 34.4166 23.3581 34.2273C22.7585 34.038 22.2207 33.7456 21.7446 33.3499C21.2861 32.937 20.9158 32.4295 20.6336 31.8273C20.3515 31.2079 20.1751 30.5112 20.1046 29.737C20.0341 28.98 20.0693 28.18 20.2104 27.337C20.3515 26.4767 20.5807 25.6337 20.8981 24.8079C21.2155 23.9649 21.6123 23.1649 22.0884 22.4079C22.5822 21.6337 23.1464 20.9542 23.7813 20.3692C24.4161 19.7843 25.1038 19.3198 25.8444 18.9757C26.6027 18.6144 27.4139 18.4337 28.2779 18.4337C28.8246 18.4337 29.2919 18.5111 29.6798 18.666C30.0854 18.8036 30.4204 18.9929 30.6849 19.2337C30.9494 19.4746 31.1522 19.7499 31.2933 20.0595C31.4344 20.3692 31.5225 20.6961 31.5578 21.0402C31.5931 21.4359 31.5578 21.8316 31.452 22.2273C31.3638 22.623 31.2051 22.9843 30.9759 23.3112C30.7467 23.638 30.4645 23.9047 30.1295 24.1112C29.7944 24.3176 29.4065 24.4294 28.9656 24.4466C28.7187 24.4466 28.4983 24.4036 28.3044 24.3176C28.1104 24.2316 27.9605 24.1284 27.8547 24.0079C27.7665 23.8875 27.7313 23.7671 27.7489 23.6466C27.7665 23.5262 27.8547 23.4402 28.0134 23.3886C28.225 23.3198 28.4013 23.1563 28.5424 22.8982C28.7011 22.623 28.8069 22.3477 28.8598 22.0724C28.9127 21.7972 28.9039 21.5477 28.8334 21.3241C28.7628 21.1004 28.6041 20.9886 28.3573 20.9886C27.6695 20.9886 27.0347 21.2638 26.4528 21.8144C25.8709 22.3649 25.3683 23.0445 24.9451 23.8531C24.5395 24.6617 24.2309 25.5305 24.0193 26.4595C23.8253 27.3714 23.7636 28.1972 23.8342 28.937C23.9047 29.7112 24.1163 30.3047 24.469 30.7176C24.8217 31.1305 25.2801 31.337 25.8444 31.337C26.5322 31.337 27.1934 31.2337 27.8282 31.0273C28.4807 30.8208 29.1067 30.4767 29.7063 29.995C30.3234 29.4961 30.9142 28.8423 31.4785 28.0337C32.0604 27.2079 32.6335 26.1843 33.1978 24.9628L34.441 25.4531ZM40.3612 19.0531C41.4721 19.1047 42.2481 19.638 42.6889 20.6531C42.7593 20.4122 42.83 20.1972 42.9005 20.0079C42.9709 19.8187 43.0327 19.6294 43.0856 19.4402C43.1914 19.1133 43.4913 18.8724 43.9849 18.7176C44.4964 18.5628 45.0165 18.4853 45.5455 18.4853C46.057 18.4853 46.4802 18.5542 46.8152 18.6918C47.1679 18.8294 47.2737 19.0445 47.1326 19.337C46.8505 19.8875 46.5067 20.6101 46.101 21.5047C45.7131 22.3993 45.3428 23.337 44.9901 24.3176C44.6373 25.2983 44.3464 26.2617 44.1172 27.2079C43.9056 28.1542 43.8262 28.9628 43.8791 29.6337C43.932 30.2186 44.179 30.5112 44.6198 30.5112C44.9547 30.5112 45.3164 30.3821 45.7042 30.1241C46.1099 29.866 46.5242 29.5047 46.9474 29.0402C47.3882 28.5585 47.8292 27.9735 48.27 27.2853C48.7108 26.5972 49.1429 25.823 49.5661 24.9628L50.8093 25.4531C50.5623 25.9348 50.2802 26.494 49.9628 27.1305C49.663 27.7499 49.3191 28.3864 48.9312 29.0402C48.5609 29.694 48.1553 30.3305 47.7145 30.9499C47.2913 31.5692 46.8241 32.1198 46.3126 32.6015C45.8189 33.0831 45.281 33.4702 44.6991 33.7628C44.1348 34.0553 43.5353 34.1928 42.9005 34.1757C42.4068 34.1585 41.9922 34.0638 41.6573 33.8918C41.3399 33.7025 41.0754 33.4618 40.8637 33.1692C40.6697 32.8767 40.5288 32.5412 40.4405 32.1628C40.37 31.7843 40.3347 31.3886 40.3347 30.9757C39.7704 32.0079 39.0915 32.7993 38.298 33.3499C37.5045 33.9005 36.6228 34.1757 35.6529 34.1757C34.6654 34.1757 33.8631 33.8831 33.2459 33.2983C32.6287 32.696 32.2761 31.8789 32.1879 30.8466C32.0997 29.9005 32.1438 28.9456 32.3201 27.9821C32.4788 27.0187 32.7433 26.0983 33.1137 25.2208C33.4663 24.3262 33.9072 23.5004 34.4362 22.7434C34.9652 21.9692 35.5471 21.3069 36.182 20.7563C36.8168 20.2058 37.4869 19.7757 38.1922 19.466C38.8976 19.1563 39.6206 19.0187 40.3612 19.0531ZM36.9226 31.0789C37.3634 31.0789 37.8307 30.838 38.3245 30.3563C38.8182 29.8747 39.2767 29.2811 39.6999 28.5757C40.1231 27.8531 40.4934 27.0789 40.8108 26.2531C41.1283 25.4273 41.331 24.6703 41.4192 23.9821C41.525 23.2423 41.4986 22.6746 41.3399 22.2789C41.1812 21.866 40.9078 21.6595 40.5199 21.6595C39.9556 21.6595 39.4178 21.8918 38.9064 22.3563C38.395 22.8208 37.9277 23.4058 37.5045 24.1112C37.0989 24.7993 36.755 25.5563 36.4729 26.3821C36.1908 27.1907 36.0056 27.9477 35.9174 28.6531C35.8469 29.3413 35.8822 29.9176 36.0232 30.3821C36.182 30.8466 36.4817 31.0789 36.9226 31.0789ZM46.9776 34.0983C46.3957 34.0983 46.2016 33.8573 46.3957 33.3757C48.0885 28.9714 49.5874 24.8767 50.8923 21.0918C52.1973 17.2896 53.4581 13.7198 54.6748 10.3821C54.7806 10.1068 55.0187 9.90899 55.389 9.78856C55.7768 9.66813 56.2001 9.60791 56.6586 9.60791C56.9407 9.60791 57.2141 9.63372 57.4786 9.68533C57.7431 9.71974 57.9723 9.77995 58.1663 9.86598C58.3603 9.952 58.4926 10.0638 58.5631 10.2015C58.6513 10.3219 58.66 10.4595 58.5895 10.6144C58.2545 11.2681 57.8929 12.0509 57.505 12.9628C57.1172 13.8574 56.7204 14.838 56.3147 15.9047C55.9091 16.9714 55.4948 18.0896 55.0716 19.2595C54.6483 20.4122 54.2427 21.5649 53.8548 22.7176C54.4721 22.5628 55.0627 22.3821 55.627 22.1757C56.1914 21.9692 56.6939 21.7456 57.1347 21.5047C57.5755 21.2638 57.9282 21.0144 58.1928 20.7563C58.4748 20.4982 58.6424 20.2488 58.6953 20.0079C58.5542 20.0251 58.4573 20.0079 58.4044 19.9563C58.369 19.8875 58.3426 19.8187 58.325 19.7499C58.3074 19.6294 58.3426 19.5262 58.4308 19.4402C58.5191 19.337 58.6249 19.2595 58.7482 19.2079C58.8894 19.1563 59.0303 19.1219 59.1714 19.1047C59.3126 19.0703 59.4359 19.0531 59.5417 19.0531C60.1061 19.0531 60.5469 19.1993 60.8643 19.4918C61.1993 19.7671 61.3844 20.1283 61.4198 20.5757C61.508 21.5219 61.023 22.3219 59.965 22.9757C58.9245 23.6294 57.3639 24.1284 55.2832 24.4724C55.8651 24.6617 56.3147 24.9542 56.6322 25.3499C56.9671 25.7284 57.2141 26.1413 57.3728 26.5886C57.461 26.8811 57.5226 27.2509 57.5579 27.6983C57.5933 28.1456 57.6462 28.5843 57.7166 29.0144C57.8049 29.4273 57.9371 29.7886 58.1134 30.0983C58.2897 30.3908 58.572 30.537 58.9598 30.537C59.2948 30.537 59.674 30.3821 60.0972 30.0725C60.5204 29.7628 60.9525 29.3499 61.3933 28.8337C61.8341 28.3176 62.2662 27.7241 62.6894 27.0531C63.1302 26.3821 63.5358 25.6853 63.9061 24.9628L65.1229 25.4273C64.5056 26.7176 63.8797 27.9047 63.2449 28.9886C62.61 30.0724 61.9663 31.0015 61.314 31.7757C60.6616 32.5499 60.009 33.1521 59.3566 33.5821C58.7042 34.0122 58.0605 34.2273 57.4257 34.2273C56.5439 34.2273 55.8386 34.0122 55.3096 33.5821C54.7982 33.1348 54.4985 32.395 54.4103 31.3628C54.375 30.9327 54.3574 30.5283 54.3574 30.1499C54.3574 29.7541 54.3663 29.3671 54.3838 28.9886C54.4014 28.6101 54.4103 28.2316 54.4103 27.8531C54.4103 27.4574 54.3927 27.0445 54.3574 26.6144C54.2869 25.7542 53.8373 25.3241 53.0084 25.3241C52.691 26.3563 52.4 27.337 52.1355 28.266C51.871 29.1778 51.6505 29.995 51.4742 30.7176C51.298 31.4402 51.1744 32.0424 51.1039 32.5241C51.0335 33.0057 51.0246 33.3241 51.0775 33.4789C51.148 33.6509 51.1304 33.7973 51.0246 33.9176C50.9363 34.038 50.7776 34.0983 50.5485 34.0983H46.9776ZM61.3137 34.0983C60.7318 34.0983 60.5378 33.8573 60.7318 33.3757C62.4247 28.9714 63.9235 24.8767 65.2285 21.0918C66.5334 17.2896 67.7942 13.7198 69.0109 10.3821C69.1167 10.1068 69.3548 9.90899 69.7251 9.78856C70.113 9.66813 70.5362 9.60791 70.9948 9.60791C71.2768 9.60791 71.5502 9.63372 71.8147 9.68533C72.0792 9.71974 72.3084 9.77995 72.5024 9.86598C72.6965 9.952 72.8287 10.0638 72.8992 10.2015C72.9874 10.3219 72.9961 10.4595 72.9257 10.6144C72.5907 11.2681 72.229 12.0509 71.8412 12.9628C71.4533 13.8574 71.0565 14.838 70.6509 15.9047C70.2452 16.9714 69.8309 18.0896 69.4077 19.2595C68.9845 20.4122 68.5788 21.5649 68.191 22.7176C68.8082 22.5628 69.3988 22.3821 69.9632 22.1757C70.5275 21.9692 71.0301 21.7456 71.4709 21.5047C71.9116 21.2638 72.2644 21.0144 72.5289 20.7563C72.811 20.4982 72.9786 20.2488 73.0315 20.0079C72.8903 20.0251 72.7934 20.0079 72.7405 19.9563C72.7052 19.8875 72.6787 19.8187 72.6612 19.7499C72.6436 19.6294 72.6787 19.5262 72.767 19.4402C72.8552 19.337 72.961 19.2595 73.0844 19.2079C73.2255 19.1563 73.3664 19.1219 73.5076 19.1047C73.6487 19.0703 73.7721 19.0531 73.8779 19.0531C74.4422 19.0531 74.883 19.1993 75.2004 19.4918C75.5354 19.7671 75.7206 20.1283 75.7559 20.5757C75.8441 21.5219 75.3591 22.3219 74.3011 22.9757C73.2606 23.6294 71.7 24.1284 69.6193 24.4724C70.2012 24.6617 70.6509 24.9542 70.9683 25.3499C71.3033 25.7284 71.5502 26.1413 71.7089 26.5886C71.7972 26.8811 71.8587 27.2509 71.8941 27.6983C71.9294 28.1456 71.9823 28.5843 72.0528 29.0144C72.141 29.4273 72.2733 29.7886 72.4495 30.0983C72.6258 30.3908 72.9081 30.537 73.296 30.537C73.6309 30.537 74.0101 30.3821 74.4334 30.0725C74.8566 29.7628 75.2887 29.3499 75.7294 28.8337C76.1702 28.3176 76.6023 27.7241 77.0255 27.0531C77.4663 26.3821 77.872 25.6853 78.2423 24.9628L79.459 25.4273C78.8418 26.7176 78.2158 27.9047 77.581 28.9886C76.9462 30.0724 76.3025 31.0015 75.6501 31.7757C74.9977 32.5499 74.3451 33.1521 73.6927 33.5821C73.0403 34.0122 72.3966 34.2273 71.7618 34.2273C70.8801 34.2273 70.1748 34.0122 69.6458 33.5821C69.1343 33.1348 68.8347 32.395 68.7464 31.3628C68.7111 30.9327 68.6935 30.5283 68.6935 30.1499C68.6935 29.7541 68.7024 29.3671 68.72 28.9886C68.7375 28.6101 68.7464 28.2316 68.7464 27.8531C68.7464 27.4574 68.7289 27.0445 68.6935 26.6144C68.6231 25.7542 68.1734 25.3241 67.3445 25.3241C67.0271 26.3563 66.7362 27.337 66.4717 28.266C66.2071 29.1778 65.9867 29.995 65.8104 30.7176C65.6341 31.4402 65.5105 32.0424 65.4401 32.5241C65.3696 33.0057 65.3607 33.3241 65.4136 33.4789C65.4841 33.6509 65.4665 33.7973 65.3607 33.9176C65.2725 34.038 65.1138 34.0983 64.8846 34.0983H61.3137ZM80.9665 14.8208C80.8783 14.1327 81.0283 13.5907 81.4162 13.195C81.8218 12.7821 82.3773 12.5843 83.0826 12.6015C83.7703 12.6359 84.3522 12.8681 84.8283 13.2982C85.3044 13.7283 85.5778 14.2875 85.6483 14.9757C85.7012 15.6466 85.5249 16.1886 85.1193 16.6015C84.7314 16.9972 84.1935 17.1778 83.5058 17.1434C82.8005 17.1262 82.2097 16.9025 81.7336 16.4724C81.275 16.0423 81.0194 15.4918 80.9665 14.8208ZM81.4691 30.5112C81.804 30.5112 82.1657 30.3821 82.5536 30.1241C82.9592 29.866 83.3735 29.5047 83.7967 29.0402C84.2375 28.5585 84.6785 27.9735 85.1193 27.2853C85.5601 26.5972 85.9922 25.823 86.4154 24.9628L87.6586 25.4531C87.4116 25.9348 87.1295 26.494 86.8121 27.1305C86.5123 27.7499 86.1684 28.3864 85.7806 29.0402C85.4102 29.6767 85.0046 30.3134 84.5638 30.9499C84.1406 31.5692 83.6734 32.1198 83.1619 32.6015C82.6682 33.0831 82.1303 33.4702 81.5484 33.7628C80.9841 34.0553 80.3846 34.1928 79.7498 34.1757C79.2912 34.1585 78.9033 34.0725 78.5859 33.9176C78.2685 33.7628 78.0129 33.565 77.8189 33.3241C77.6248 33.066 77.4839 32.7821 77.3956 32.4725C77.2898 32.1456 77.2281 31.8273 77.2105 31.5176C77.14 30.7434 77.2016 29.8231 77.3956 28.7563C77.5719 27.6724 77.81 26.5628 78.1098 25.4273C78.4097 24.2918 78.7271 23.1907 79.062 22.1241C79.4148 21.0574 79.7057 20.1628 79.9349 19.4402C80.0407 19.1133 80.3406 18.8724 80.8343 18.7176C81.3457 18.5628 81.8658 18.4853 82.3948 18.4853C82.9063 18.4853 83.3295 18.5542 83.6645 18.6918C84.0172 18.8294 84.123 19.0445 83.9819 19.337C83.6998 19.8875 83.356 20.6101 82.9503 21.5047C82.5624 22.3821 82.1921 23.3112 81.8394 24.2918C81.4866 25.2724 81.1957 26.2445 80.9665 27.2079C80.7549 28.1542 80.6755 28.9628 80.7284 29.6337C80.7813 30.2186 81.0283 30.5112 81.4691 30.5112ZM100 25.4531C99.4009 26.9843 98.7396 28.3004 98.0165 29.4015C97.3112 30.4854 96.5617 31.3886 95.7682 32.1112C94.9923 32.8166 94.1901 33.3585 93.3612 33.737C92.5323 34.0983 91.7037 34.3134 90.8748 34.3821C89.376 34.5198 88.1679 34.1843 87.2511 33.3757C86.3342 32.567 85.8051 31.3541 85.664 29.737C85.5935 28.98 85.6287 28.18 85.7698 27.337C85.9109 26.4767 86.1401 25.6337 86.4575 24.8079C86.7925 23.9649 87.1982 23.1649 87.6743 22.4079C88.168 21.6337 88.7234 20.9542 89.3407 20.3692C89.9755 19.7843 90.6721 19.3198 91.4303 18.9757C92.1885 18.6144 92.9998 18.4337 93.8638 18.4337C94.7807 18.4337 95.5213 18.6402 96.0856 19.0531C96.6675 19.4488 96.985 19.9993 97.0379 20.7047C97.0908 21.3757 96.9496 22.038 96.6146 22.6918C96.2797 23.3456 95.7771 23.9649 95.1069 24.5499C94.4368 25.1348 93.6168 25.6682 92.647 26.1499C91.6948 26.6144 90.6279 27.0015 89.4465 27.3112C89.4111 27.6036 89.3847 27.8875 89.3671 28.1628C89.3671 28.4208 89.376 28.6789 89.3936 28.937C89.464 29.7112 89.6756 30.3047 90.0284 30.7176C90.3811 31.1305 90.8395 31.337 91.4038 31.337C91.9857 31.337 92.5941 31.2251 93.2289 31.0015C93.8813 30.7779 94.525 30.4166 95.1599 29.9176C95.8122 29.4187 96.4384 28.7649 97.0379 27.9563C97.6551 27.1305 98.2281 26.1327 98.7572 24.9628L100 25.4531ZM89.8961 25.3499C91.0071 24.9198 91.8799 24.4466 92.5148 23.9305C93.1672 23.4144 93.6257 22.9413 93.8902 22.5112C94.1723 22.081 94.2959 21.7198 94.2605 21.4273C94.243 21.1348 94.1283 20.9886 93.9167 20.9886C93.4581 20.9886 93.0262 21.109 92.6206 21.3499C92.2149 21.5907 91.8359 21.9176 91.4832 22.3305C91.1482 22.7262 90.8395 23.1907 90.5574 23.7241C90.2929 24.2402 90.0724 24.7821 89.8961 25.3499Z" fill="#8B4513"/>
<path fill-rule="evenodd" clip-rule="evenodd" d="M22.4672 11.8006C20.4211 12.6274 16.7208 14.333 15.9356 16.6387C15.2854 18.5485 9.9295 19.944 7.94566 21.0422L6.88965 21.6971C9.25435 19.5214 14.7919 18.0486 15.2789 16.4336C16.0839 13.7629 20.0258 11.837 22.3778 10.8874C22.6364 10.8633 22.8659 11.048 22.8905 11.3004C22.9151 11.5527 22.7258 11.7766 22.4672 11.8006Z" fill="#8B4513"/>
<path fill-rule="evenodd" clip-rule="evenodd" d="M22.4225 11.3438C21.545 11.4255 15.9328 14.5323 15.6558 16.3339C15.3188 18.5254 9.07863 19.5615 6.88965 21.6968" fill="#8B4513"/>
<path fill-rule="evenodd" clip-rule="evenodd" d="M23.6781 12.9471C21.632 13.7739 17.9315 15.4794 17.1466 17.7852C16.4963 19.695 11.1404 21.0905 9.15659 22.1887L8.10059 22.8435C10.4653 20.6679 16.0028 19.195 16.4898 17.58C17.2948 14.9094 21.2367 12.9835 23.5887 12.0338C23.8473 12.0098 24.0768 12.1945 24.1014 12.4468C24.1261 12.6992 23.9368 12.9231 23.6781 12.9471Z" fill="#8B4513"/>
<path fill-rule="evenodd" clip-rule="evenodd" d="M23.6334 12.4907C22.756 12.5724 17.1437 15.6793 16.8667 17.4809C16.5297 19.6723 10.2896 20.7084 8.10059 22.8438" fill="#8B4513"/>
<path fill-rule="evenodd" clip-rule="evenodd" d="M35.0867 49.5553C30.2546 47.7583 24.1591 45.2318 17.1142 48.3069C15.6386 48.8201 13.6819 49.9274 13.2982 50C12.2999 46.8746 12.0515 45.4018 10.5246 42.0462C10.1689 41.2649 9.78666 40.548 9.4655 39.786C1.61815 41.1832 -3.75584 28.0264 3.24319 16.6231C6.15486 11.8789 11.6604 9.09257 16.765 6.99666C18.4509 6.30456 20.7313 5.34881 22.0986 4.47837C24.128 3.18638 24.9038 2.35265 25.4434 0C25.837 0.127543 25.6186 0.0066282 25.9109 0.282144C26.0427 0.406374 26.0583 0.461587 26.1907 0.633301C26.4114 0.919307 26.5945 1.11062 26.8667 1.35052C28.9677 3.20018 32.7 4.03777 34.9376 6.69299C36.2124 8.20584 35.9469 8.87033 36.3915 10.6631C37.4568 10.8169 41.1673 9.47796 45.6811 11.8566C47.4663 12.7974 49.2175 15.1928 47.8884 17.1548C47.6165 17.5562 46.6245 18.0951 46.0749 18.1396C45.9833 16.4661 46.1935 15.3093 45.11 14.2062C43.0818 12.1417 40.3116 11.7525 37.4047 11.9742C36.5148 12.0418 33.3799 13.7595 32.5803 14.1689C33.5248 11.6567 33.6513 8.62629 31.6694 6.49725C31.1822 5.97383 26.3642 3.29294 25.5716 3.15159C22.261 7.69677 16.6366 11.6252 11.9858 14.8696C-3.86648 25.9291 6.01281 38.2942 11.1565 36.8012L11.1522 36.8454C11.2931 36.8197 11.4423 36.8045 11.603 36.8026C12.3022 38.2967 12.9004 39.6936 13.3667 41.5311C13.7076 42.875 14.1411 44.533 14.8491 45.645C15.4433 45.4054 16.3185 45.1776 17.3759 44.9731C17.3757 43.561 17.3247 42.1834 17.0539 40.0952C16.896 38.8775 16.6456 37.771 16.6499 36.54C16.653 35.5578 17.0409 35.5481 17.7814 35.4184C18.3943 35.311 18.9407 35.1821 19.6343 35.3767C19.8632 37.0038 20.0236 38.5095 19.928 40.4003C19.8618 41.708 19.7919 43.3084 20.0805 44.5474C21.2338 44.3997 22.4738 44.2771 23.7276 44.1877C23.7109 42.9862 23.6393 41.7274 23.4101 39.9591C23.2519 38.7414 23.0018 37.6349 23.006 36.4039C23.0088 35.4217 23.3971 35.412 24.1373 35.2823C24.7505 35.1749 25.2969 35.046 25.9901 35.2406C26.219 36.8677 26.3795 38.3734 26.2838 40.2642C26.2238 41.4483 26.161 42.8722 26.3639 44.0505C27.3611 44.019 28.3344 44.0124 29.2459 44.035C29.3913 42.9225 29.3339 41.6401 29.2793 40.5579C29.1836 38.6671 29.3443 37.1615 29.573 35.5343C30.2665 35.34 30.8126 35.4686 31.4258 35.576C32.1663 35.7058 32.5542 35.7154 32.5573 36.6977C32.5613 37.9287 32.3112 39.0351 32.1533 40.2529C31.9416 41.8858 31.8647 43.084 31.8406 44.2042C32.8765 44.3265 33.7144 44.514 34.2506 44.7776C34.37 44.8364 34.4809 44.8958 34.5842 44.9562C34.8558 44.1739 35.07 43.3446 35.2568 42.6094C35.7231 40.7719 36.3213 39.375 37.0205 37.8809C37.742 37.8895 38.2273 38.1661 38.7828 38.4413C39.4537 38.7737 39.8224 38.8916 39.5354 39.8333C39.1761 41.0132 38.6102 42.0026 38.0994 43.1243C37.4882 44.4676 35.7477 48.5512 35.0867 49.5547V49.5553Z" fill="#8B4513"/>
</svg>
